<svg width="20" height="20" viewBox="0 0 20 20" fill="none" xmlns="http://www.w3.org/2000/svg">
<path fill-rule="evenodd" clip-rule="evenodd" d="M10 19.9995C4.47715 19.9995 0 15.5224 0 9.99951C0 4.47666 4.47715 -0.000488281 10 -0.000488281C15.5228 -0.000488281 20 4.47666 20 9.99951C20 15.5224 15.5228 19.9995 10 19.9995ZM10 18.9995C14.9706 18.9995 19 14.9701 19 9.99951C19 5.02895 14.9706 0.999512 10 0.999512C5.02944 0.999512 1 5.02895 1 9.99951C1 14.9701 5.02944 18.9995 10 18.9995Z" fill="#262D33"/>
<path fill-rule="evenodd" clip-rule="evenodd" d="M8.2 12.3689V7.63005C8.2 7.4475 8.3532 7.29951 8.54218 7.29951C8.6078 7.29951 8.67203 7.31773 8.72722 7.35201L12.5428 9.72145C12.7018 9.82016 12.7478 10.0247 12.6456 10.1782C12.6191 10.2181 12.584 10.2519 12.5428 10.2775L8.72722 12.647C8.56825 12.7457 8.35654 12.7012 8.25435 12.5477C8.21886 12.4944 8.2 12.4323 8.2 12.3689Z" fill="#262D33"/>
</svg>
